<?xml version="1.0" encoding="UTF-8"?><svg id="Layer_1" xmlns="http://www.w3.org/2000/svg" width="512" height="512" xmlns:xlink="http://www.w3.org/1999/xlink" viewBox="0 0 512 512"><defs><linearGradient id="linear-gradient" x1="266.02" y1="288.59" x2="266.02" y2="189.68" gradientUnits="userSpaceOnUse"><stop offset="0" stop-color="#1280f9"/><stop offset=".16" stop-color="#32a6f7"/><stop offset=".25" stop-color="#42b9f7"/><stop offset=".75" stop-color="#38b3a4"/><stop offset=".87" stop-color="#249e96"/><stop offset="1" stop-color="#138c8a"/></linearGradient><linearGradient id="linear-gradient-2" x1="242.45" y1="304.97" x2="242.45" y2="249.92" xlink:href="#linear-gradient"/><linearGradient id="linear-gradient-3" x1="266.02" y1="209.7" x2="266.02" y2="154.42" xlink:href="#linear-gradient"/><linearGradient id="linear-gradient-4" x1="256" y1="415.72" x2="256" y2="96.28" xlink:href="#linear-gradient"/><linearGradient id="linear-gradient-5" x1="310.48" y1="347.54" x2="310.48" y2="275.88" xlink:href="#linear-gradient"/><linearGradient id="linear-gradient-6" x1="289.55" y1="303.95" x2="289.55" y2="240.51" xlink:href="#linear-gradient"/></defs><path d="M303.86,214.48c-.03-.5.29-1.21-.43-1.09-1.67,3.06-3.97,7.33-7.75,7.87-18.85-1.05-39.44,1.52-58.08.06-1.99-.16-3.27-.41-4.82-1.78l-4.62-6.15c-.33,10.92-.36,20.57,5.05,30.32,11.16,20.12,39.03,25.32,56.78,10.52,12.62-10.52,14.68-24.02,13.88-39.75Z" fill="url(#linear-gradient)"/><path d="M225.5,279.5l19.52,12.87,14.15-9.14.22-7.9c-6.81-.34-13-3.29-19.08-6.06l-14.81,10.23Z" fill="url(#linear-gradient-2)"/><path d="M258.21,177.01c3.18,1.84,12.77,1.86,15.87-.16,4.81-3.14,3.08-11.12-2.56-11.8-2.18-.26-9.78-.3-11.79.11-5.11,1.04-6.35,9.04-1.51,11.85Z" fill="url(#linear-gradient-3)"/><path d="M369.25,202.82h100.75c0-58.84-47.7-106.54-106.52-106.54h-214.96c-29.41,0-56.04,11.92-75.33,31.21-19.23,19.23-31.15,45.8-31.19,75.18v.15c.07,58.77,47.75,106.39,106.52,106.39H42c0,58.82,47.7,106.52,106.52,106.52h214.96c29.41,0,56.04-11.92,75.33-31.19,19.27-19.29,31.19-45.92,31.19-75.33,0-56.91-44.62-103.38-100.75-106.39ZM364.81,366.25c-.4.48-3.21,2.21-3.51,2.21h-88.7v-69.63l-6.45-4.09-6.75,4.09v69.63h-88.7c-.3,0-3.1-1.73-3.51-2.21-1.08-1.3-1.87-3.74-1.51-5.43,6.53-20.59,10.54-42.75,17.25-63.19.78-2.37,1.28-4.68,3.39-6.28l43.13-30.75c-8.79-9.19-13.81-21.06-14.54-33.81-.72-12.77-.51-30.37,1.48-42.93,3.45-21.75,21.87-38.55,43.88-40.34h11.44c45.3,5.9,47.47,46.09,45.36,83.27-.72,12.75-5.75,24.62-14.54,33.81l43.13,30.75c2.11,1.6,2.62,3.91,3.39,6.28,6.71,20.44,10.71,42.59,17.25,63.19.36,1.68-.43,4.13-1.51,5.43Z" fill="url(#linear-gradient-4)"/><path d="M323.69,327.37c-3.43-.72-22.06-.69-25.67-.09-7.37,1.23-7.37,11.5-.79,12.88,3.69.78,21.71.7,25.74.16,7.26-.98,7.45-11.53.72-12.95Z" fill="url(#linear-gradient-5)"/><path d="M291.68,269.27c-6.08,2.77-12.27,5.72-19.08,6.06l.22,7.9,14.15,9.14,19.52-13.09-14.81-10.02Z" fill="url(#linear-gradient-6)"/></svg>